<svg width="1302" height="501" viewBox="0 0 1302 501" fill="none" xmlns="http://www.w3.org/2000/svg">
<path fill-rule="evenodd" clip-rule="evenodd" d="M1238.09 130.364C1232.37 132.653 1229.59 139.147 1231.88 144.869C1234.16 150.592 1240.66 153.376 1246.38 151.087C1252.1 148.799 1254.89 142.305 1252.6 136.582C1250.31 130.86 1243.82 128.076 1238.09 130.364ZM1231.37 145.072C1228.97 139.07 1231.89 132.258 1237.89 129.857C1243.89 127.457 1250.71 130.377 1253.11 136.38C1255.51 142.382 1252.59 149.194 1246.58 151.594C1240.58 153.995 1233.77 151.075 1231.37 145.072Z" fill="#72AAEA"/>
<path fill-rule="evenodd" clip-rule="evenodd" d="M1250.64 124.568C1249.15 125.69 1247.32 127.505 1245.33 129.838C1245.24 129.952 1245.06 129.966 1244.95 129.869C1244.83 129.771 1244.82 129.598 1244.92 129.484C1246.92 127.137 1248.78 125.289 1250.31 124.133C1251.07 123.556 1251.77 123.141 1252.37 122.927C1252.96 122.716 1253.52 122.683 1253.96 122.969L1253.96 122.969C1254.29 123.186 1254.47 123.545 1254.56 123.976C1254.65 124.405 1254.65 124.932 1254.57 125.533C1254.41 126.736 1253.94 128.298 1253.21 130.107C1251.76 133.73 1249.27 138.394 1246.07 143.247L1246.07 143.247C1242.87 148.098 1239.57 152.231 1236.81 154.992C1235.43 156.37 1234.18 157.417 1233.14 158.038C1232.62 158.348 1232.14 158.56 1231.71 158.647C1231.27 158.735 1230.87 158.703 1230.54 158.486L1230.54 158.486C1230.11 158.2 1229.92 157.671 1229.88 157.041C1229.84 156.404 1229.94 155.6 1230.17 154.67C1230.63 152.807 1231.6 150.371 1232.97 147.611C1233.04 147.476 1233.2 147.42 1233.33 147.487C1233.47 147.554 1233.52 147.718 1233.46 147.853C1232.1 150.597 1231.15 152.992 1230.7 154.801C1230.48 155.706 1230.39 156.449 1230.42 157.006C1230.46 157.571 1230.62 157.885 1230.84 158.03C1231.01 158.141 1231.25 158.183 1231.6 158.112C1231.94 158.042 1232.37 157.862 1232.86 157.569C1233.85 156.982 1235.06 155.971 1236.42 154.606C1239.15 151.878 1242.43 147.776 1245.61 142.947C1248.8 138.115 1251.27 133.484 1252.71 129.905C1253.42 128.113 1253.87 126.599 1254.03 125.461C1254.1 124.891 1254.1 124.432 1254.03 124.086C1253.96 123.74 1253.82 123.535 1253.66 123.424C1253.44 123.279 1253.08 123.253 1252.55 123.442C1252.03 123.629 1251.38 124.006 1250.64 124.568Z" fill="#72AAEA"/>
<path fill-rule="evenodd" clip-rule="evenodd" d="M1222.89 137.535C1222.61 137.746 1222.48 137.954 1222.45 138.152L1222.45 138.153C1222.41 138.403 1222.53 138.718 1222.89 139.103C1223.25 139.483 1223.82 139.89 1224.59 140.311C1226.12 141.15 1228.37 142.01 1231.14 142.807C1231.28 142.849 1231.37 143 1231.32 143.145C1231.28 143.29 1231.13 143.374 1230.99 143.332C1228.2 142.529 1225.9 141.656 1224.32 140.789C1223.54 140.357 1222.91 139.917 1222.49 139.478C1222.08 139.044 1221.84 138.566 1221.91 138.072C1221.97 137.682 1222.21 137.359 1222.57 137.097C1222.92 136.835 1223.4 136.617 1223.98 136.435C1225.13 136.071 1226.75 135.836 1228.69 135.728C1232.59 135.513 1237.87 135.807 1243.62 136.657C1249.37 137.508 1254.51 138.757 1258.18 140.091C1260.01 140.758 1261.49 141.451 1262.49 142.135C1262.99 142.476 1263.39 142.824 1263.65 143.176C1263.91 143.529 1264.05 143.91 1263.99 144.3C1263.91 144.838 1263.48 145.248 1262.88 145.557C1262.27 145.87 1261.42 146.115 1260.4 146.297C1258.35 146.663 1255.5 146.788 1252.17 146.662C1252.02 146.656 1251.9 146.529 1251.91 146.379C1251.91 146.228 1252.04 146.11 1252.19 146.116C1255.5 146.241 1258.31 146.115 1260.3 145.76C1261.31 145.582 1262.09 145.349 1262.63 145.071C1263.17 144.789 1263.41 144.494 1263.45 144.22L1263.45 144.22C1263.48 144.021 1263.42 143.784 1263.21 143.501C1263 143.217 1262.66 142.909 1262.18 142.586C1261.23 141.939 1259.8 141.265 1257.99 140.604C1254.37 139.286 1249.26 138.045 1243.54 137.197C1237.82 136.35 1232.57 136.06 1228.73 136.273C1226.8 136.38 1225.23 136.612 1224.14 136.956C1223.59 137.128 1223.18 137.324 1222.89 137.535Z" fill="#72AAEA"/>
<path fill-rule="evenodd" clip-rule="evenodd" d="M1228.51 120.616C1228.16 120.507 1227.94 120.537 1227.8 120.625C1227.7 120.693 1227.61 120.818 1227.55 121.039C1227.49 121.263 1227.47 121.565 1227.5 121.948C1227.56 122.716 1227.81 123.751 1228.24 125.011C1229.1 127.527 1230.67 130.878 1232.76 134.655C1232.83 134.787 1232.78 134.953 1232.65 135.026C1232.52 135.099 1232.35 135.051 1232.28 134.919C1230.18 131.129 1228.6 127.746 1227.72 125.188C1227.28 123.912 1227.02 122.826 1226.95 121.99C1226.92 121.573 1226.94 121.203 1227.02 120.898C1227.1 120.59 1227.25 120.329 1227.51 120.166L1227.51 120.166C1227.84 119.953 1228.25 119.963 1228.67 120.094C1229.1 120.226 1229.59 120.493 1230.13 120.867C1231.2 121.618 1232.51 122.84 1233.98 124.427C1236.91 127.607 1240.48 132.293 1244 137.734C1247.52 143.176 1250.34 148.353 1252.04 152.327C1252.89 154.312 1253.47 156.009 1253.72 157.295C1253.84 157.936 1253.88 158.492 1253.83 158.937C1253.77 159.378 1253.61 159.759 1253.28 159.972L1253.28 159.972C1252.85 160.253 1252.27 160.15 1251.68 159.875C1251.07 159.593 1250.35 159.087 1249.55 158.401C1247.94 157.026 1245.96 154.881 1243.8 152.189C1243.7 152.071 1243.72 151.899 1243.84 151.805C1243.96 151.71 1244.13 151.729 1244.22 151.847C1246.38 154.527 1248.34 156.643 1249.91 157.987C1250.69 158.66 1251.37 159.128 1251.91 159.38C1252.47 159.64 1252.8 159.631 1252.99 159.514C1253.12 159.426 1253.24 159.236 1253.29 158.869C1253.33 158.505 1253.3 158.013 1253.18 157.397C1252.95 156.169 1252.39 154.513 1251.54 152.542C1249.85 148.604 1247.06 143.455 1243.54 138.031L1243.54 138.031C1240.03 132.608 1236.48 127.948 1233.58 124.798C1232.12 123.221 1230.84 122.032 1229.82 121.315C1229.3 120.955 1228.87 120.724 1228.51 120.616Z" fill="#72AAEA"/>
<path d="M1255.42 128.143C1254.85 129.011 1253.68 129.251 1252.82 128.678C1251.95 128.105 1251.71 126.942 1252.28 126.074C1252.85 125.206 1254.02 124.965 1254.89 125.539C1255.75 126.112 1255.99 127.275 1255.42 128.143Z" fill="#72AAEA"/>
<path d="M1249.2 156.91C1248.63 157.778 1247.47 158.018 1246.6 157.445C1245.73 156.872 1245.49 155.709 1246.06 154.841C1246.64 153.973 1247.8 153.733 1248.67 154.306C1249.53 154.879 1249.77 156.042 1249.2 156.91Z" fill="#72AAEA"/>
<path d="M1239.16 137.403C1238.59 138.271 1237.43 138.511 1236.56 137.938C1235.69 137.364 1235.45 136.202 1236.02 135.333C1236.6 134.465 1237.76 134.225 1238.63 134.798C1239.5 135.372 1239.74 136.535 1239.16 137.403Z" fill="#72AAEA"/>
<path fill-rule="evenodd" clip-rule="evenodd" d="M1115.5 234.608C1114.84 238.654 1117.58 242.472 1121.63 243.136C1125.67 243.8 1129.49 241.058 1130.16 237.012C1130.82 232.966 1128.08 229.147 1124.03 228.484C1119.99 227.82 1116.17 230.562 1115.5 234.608ZM1121.51 243.84C1117.08 243.112 1114.07 238.927 1114.8 234.492C1115.53 230.058 1119.71 227.052 1124.15 227.78C1128.58 228.507 1131.59 232.692 1130.86 237.127C1130.13 241.562 1125.95 244.568 1121.51 243.84Z" fill="#72AAEA"/>
<path fill-rule="evenodd" clip-rule="evenodd" d="M1131.74 230.744C1127.26 231.662 1124.38 236.035 1125.3 240.511C1126.22 244.987 1130.59 247.871 1135.06 246.952C1139.54 246.034 1142.42 241.661 1141.51 237.185C1140.59 232.709 1136.21 229.826 1131.74 230.744ZM1124.6 240.654C1123.6 235.793 1126.73 231.043 1131.6 230.045C1136.46 229.048 1141.21 232.18 1142.2 237.042C1143.2 241.904 1140.07 246.653 1135.21 247.651C1130.35 248.649 1125.6 245.516 1124.6 240.654Z" fill="#72AAEA"/>
<path fill-rule="evenodd" clip-rule="evenodd" d="M1130.26 232.481C1130.32 232.666 1130.23 232.87 1130.04 232.936L1126.46 234.213C1126.28 234.279 1126.07 234.182 1126.01 233.997C1125.94 233.811 1126.04 233.607 1126.22 233.541L1129.8 232.264C1129.99 232.198 1130.19 232.295 1130.26 232.481Z" fill="#72AAEA"/>
<path fill-rule="evenodd" clip-rule="evenodd" d="M1130.75 233.956C1130.82 234.141 1130.73 234.345 1130.54 234.412L1125.39 236.274C1125.21 236.341 1125 236.245 1124.93 236.06C1124.87 235.874 1124.96 235.67 1125.15 235.603L1130.3 233.742C1130.48 233.675 1130.69 233.77 1130.75 233.956Z" fill="#72AAEA"/>
<path fill-rule="evenodd" clip-rule="evenodd" d="M1130.95 235.731C1131.02 235.915 1130.92 236.121 1130.74 236.192L1124.99 238.403C1124.81 238.474 1124.6 238.382 1124.53 238.198C1124.46 238.014 1124.55 237.808 1124.74 237.737L1130.48 235.526C1130.67 235.456 1130.87 235.547 1130.95 235.731Z" fill="#72AAEA"/>
<path fill-rule="evenodd" clip-rule="evenodd" d="M1130.53 238.143C1130.61 238.322 1130.53 238.534 1130.36 238.616L1125.11 241.012C1124.93 241.094 1124.72 241.015 1124.64 240.836C1124.56 240.657 1124.64 240.445 1124.82 240.363L1130.06 237.967C1130.24 237.885 1130.45 237.964 1130.53 238.143Z" fill="#72AAEA"/>
<path fill-rule="evenodd" clip-rule="evenodd" d="M1129.61 240.023C1129.68 240.205 1129.6 240.414 1129.41 240.49L1125.43 242.144C1125.25 242.22 1125.04 242.134 1124.97 241.952C1124.89 241.77 1124.98 241.561 1125.16 241.486L1129.14 239.831C1129.32 239.756 1129.53 239.842 1129.61 240.023Z" fill="#72AAEA"/>
<path fill-rule="evenodd" clip-rule="evenodd" d="M1125.95 225.404C1125.71 225.537 1125.47 225.653 1125.23 225.739C1124.82 225.885 1124.35 225.975 1123.97 225.823C1123.76 225.741 1123.59 225.592 1123.49 225.375C1123.38 225.167 1123.35 224.919 1123.37 224.647C1123.41 224.091 1123.63 223.674 1123.97 223.398C1124.3 223.129 1124.71 223.019 1125.1 223.002C1125.49 222.985 1125.88 223.059 1126.2 223.19C1126.36 223.255 1126.51 223.339 1126.63 223.44C1126.74 223.523 1126.83 223.63 1126.9 223.762C1127.02 223.617 1127.24 223.593 1127.39 223.71C1127.54 223.828 1127.57 224.049 1127.46 224.205C1127.46 224.205 1127.46 224.205 1127.46 224.205L1127.46 224.205L1127.46 224.206L1127.45 224.21L1127.44 224.224C1127.43 224.238 1127.42 224.257 1127.4 224.283C1127.36 224.334 1127.31 224.408 1127.25 224.498C1127.13 224.679 1126.98 224.921 1126.84 225.171C1126.71 225.427 1126.6 225.667 1126.56 225.85C1126.55 225.941 1126.55 225.987 1126.55 226.007C1126.7 226.116 1126.74 226.324 1126.64 226.485C1126.54 226.652 1126.32 226.703 1126.15 226.599C1125.79 226.374 1125.81 225.959 1125.87 225.703C1125.89 225.606 1125.92 225.506 1125.95 225.404ZM1126.39 224.253C1126.3 224.331 1126.19 224.409 1126.08 224.486C1125.73 224.729 1125.34 224.942 1124.99 225.068C1124.61 225.202 1124.36 225.211 1124.23 225.16C1124.18 225.141 1124.15 225.113 1124.13 225.061C1124.1 225 1124.07 224.888 1124.08 224.693C1124.11 224.314 1124.25 224.09 1124.42 223.952C1124.6 223.807 1124.85 223.727 1125.13 223.715C1125.42 223.702 1125.71 223.758 1125.93 223.85C1126.04 223.895 1126.13 223.946 1126.18 223.993C1126.24 224.04 1126.25 224.069 1126.25 224.071C1126.25 224.071 1126.25 224.071 1126.25 224.071C1126.28 224.148 1126.33 224.211 1126.39 224.253ZM1126.56 226.02C1126.55 226.02 1126.55 226.018 1126.55 226.012C1126.55 226.016 1126.56 226.019 1126.56 226.02Z" fill="#72AAEA"/>
<path fill-rule="evenodd" clip-rule="evenodd" d="M1140.72 225.961C1140.9 226.046 1140.97 226.259 1140.89 226.436L1139.84 228.614C1140.1 228.486 1140.39 228.415 1140.7 228.47L1140.71 228.47C1141.19 228.556 1141.52 228.834 1141.65 229.218C1141.78 229.582 1141.71 229.986 1141.53 230.316C1141.35 230.651 1141.04 230.943 1140.63 231.08C1140.21 231.219 1139.71 231.188 1139.19 230.93C1139.02 230.843 1138.94 230.629 1139.03 230.453C1139.12 230.276 1139.33 230.204 1139.51 230.292C1139.88 230.476 1140.18 230.476 1140.4 230.403C1140.63 230.328 1140.8 230.167 1140.91 229.977C1141.01 229.782 1141.03 229.589 1140.98 229.454C1140.94 229.34 1140.84 229.218 1140.58 229.172C1140.41 229.143 1140.21 229.198 1139.98 229.358C1139.75 229.518 1139.52 229.757 1139.32 230.021C1139.11 230.282 1138.95 230.551 1138.83 230.757C1138.77 230.859 1138.72 230.945 1138.69 231.005C1138.68 231.034 1138.66 231.057 1138.66 231.073L1138.65 231.089L1138.65 231.093L1138.65 231.094C1138.56 231.271 1138.35 231.346 1138.17 231.26C1137.99 231.175 1137.92 230.962 1138 230.785L1138 230.783L1140.24 226.127C1140.33 225.95 1140.54 225.875 1140.72 225.961Z" fill="#72AAEA"/>
<path fill-rule="evenodd" clip-rule="evenodd" d="M1199.96 19.0407C1199.96 18.9173 1200.03 18.8067 1200.13 18.7506L1207.17 15.0448C1207.28 14.9886 1207.41 14.9953 1207.51 15.0623L1214.43 19.4863C1214.54 19.5534 1214.6 19.6709 1214.6 19.7944L1214.47 27.9367C1214.47 28.06 1214.4 28.1705 1214.29 28.2267L1207.25 31.9325C1207.15 31.9887 1207.02 31.9819 1206.91 31.9147L1199.99 27.4814C1199.89 27.4142 1199.83 27.2969 1199.83 27.1736L1199.96 19.0407ZM1200.64 19.2754L1200.52 27.0098L1207.09 31.226L1213.79 27.7018L1213.91 19.9584L1207.33 15.7512L1200.64 19.2754Z" fill="#72AAEA"/>
<path fill-rule="evenodd" clip-rule="evenodd" d="M1198.84 45.2485C1198.74 45.0778 1198.8 44.8688 1198.97 44.7816L1206.03 41.0614C1206.14 41.005 1206.27 41.0118 1206.38 41.0792L1213.31 45.5235C1213.47 45.6276 1213.53 45.8425 1213.43 46.0034C1213.33 46.1643 1213.12 46.2102 1212.96 46.106L1206.19 41.7706L1199.3 45.3996C1199.14 45.4868 1198.93 45.4192 1198.84 45.2485Z" fill="#72AAEA"/>
<path fill-rule="evenodd" clip-rule="evenodd" d="M1185.88 18.6043C1185.88 18.4809 1185.95 18.3703 1186.05 18.314L1193.09 14.6083C1193.2 14.552 1193.33 14.5588 1193.43 14.626L1200.35 19.0593C1200.46 19.1265 1200.52 19.2438 1200.52 19.3671L1200.39 27.5C1200.39 27.6234 1200.32 27.7339 1200.21 27.7901L1193.17 31.4959C1193.07 31.5521 1192.94 31.5454 1192.83 31.4782L1185.92 27.0511C1185.81 26.984 1185.75 26.8667 1185.75 26.7434L1185.88 18.6043ZM1186.56 18.8389L1186.44 26.5793L1193.01 30.7894L1199.71 27.2652L1199.83 19.5309L1193.25 15.3148L1186.56 18.8389Z" fill="#72AAEA"/>
<path fill-rule="evenodd" clip-rule="evenodd" d="M1193.37 6.67348C1193.37 6.55015 1193.44 6.43956 1193.54 6.38337L1200.58 2.67757C1200.69 2.62142 1200.82 2.62811 1200.92 2.69512L1207.84 7.11912C1207.95 7.18626 1208.01 7.30376 1208.01 7.42725L1207.88 15.5695C1207.88 15.6928 1207.81 15.8033 1207.7 15.8595L1200.66 19.5653C1200.56 19.6215 1200.43 19.6147 1200.32 19.5475L1193.41 15.1142C1193.3 15.0471 1193.24 14.9297 1193.24 14.8064L1193.37 6.67348ZM1194.05 6.90825L1193.93 14.6426L1200.5 18.8588L1207.2 15.3346L1207.32 7.59117L1200.74 3.38398L1194.05 6.90825Z" fill="#72AAEA"/>
<path d="M1200.8 20.2189C1201.32 19.9446 1201.5 19.2877 1201.22 18.7516C1200.93 18.2156 1200.27 18.0034 1199.75 18.2777C1199.23 18.552 1199.04 19.209 1199.33 19.745C1199.62 20.2811 1200.27 20.4933 1200.8 20.2189Z" fill="#72AAEA"/>
<path d="M1178.97 15.1877C1179.49 14.9134 1179.68 14.2565 1179.39 13.7204C1179.1 13.1843 1178.44 12.9722 1177.92 13.2465C1177.4 13.5208 1177.21 14.1777 1177.5 14.7138C1177.79 15.2498 1178.45 15.462 1178.97 15.1877Z" fill="#72AAEA"/>
<path d="M1212.19 46.184C1211.9 45.6495 1212.09 44.9902 1212.61 44.7167C1213.13 44.4432 1213.79 44.6562 1214.08 45.1906C1214.37 45.7251 1214.18 46.3844 1213.66 46.6579C1213.14 46.9314 1212.48 46.7184 1212.19 46.184Z" fill="#72AAEA"/>
<path d="M1199.66 46.1862C1200.18 45.9119 1200.37 45.255 1200.08 44.7189C1199.79 44.1829 1199.13 43.9707 1198.61 44.245C1198.09 44.5193 1197.9 45.1763 1198.19 45.7123C1198.48 46.2484 1199.14 46.4605 1199.66 46.1862Z" fill="#72AAEA"/>
<path d="M1214.77 3.77823C1214.48 3.24378 1214.67 2.58442 1215.19 2.31092C1215.71 2.03743 1216.37 2.2504 1216.65 2.78485C1216.94 3.3193 1216.75 3.97866 1216.24 4.25215C1215.72 4.53179 1215.06 4.31883 1214.77 3.77823Z" fill="#72AAEA"/>
<path d="M1206.72 42.4192C1207.25 42.1448 1207.43 41.4879 1207.14 40.9518C1206.85 40.4158 1206.2 40.2036 1205.68 40.4779C1205.15 40.7522 1204.97 41.4092 1205.26 41.9452C1205.55 42.4813 1206.2 42.6935 1206.72 42.4192Z" fill="#72AAEA"/>
<path d="M1206.9 7.97159C1206.61 7.43714 1206.8 6.77778 1207.32 6.50429C1207.84 6.2308 1208.5 6.44377 1208.79 6.97822C1209.08 7.51267 1208.89 8.17203 1208.37 8.44552C1207.85 8.72516 1207.19 8.51219 1206.9 7.97159Z" fill="#72AAEA"/>
<path d="M1205.92 32.1127C1205.63 31.5783 1205.82 30.9189 1206.34 30.6454C1206.86 30.3719 1207.52 30.5849 1207.81 31.1193C1208.1 31.6538 1207.91 32.3131 1207.39 32.5866C1206.87 32.8601 1206.21 32.6472 1205.92 32.1127Z" fill="#72AAEA"/>
<path fill-rule="evenodd" clip-rule="evenodd" d="M1207.55 7.62157C1207.46 7.44845 1207.52 7.23616 1207.69 7.14741L1215.53 2.9791C1215.7 2.89035 1215.91 2.95875 1216 3.13188C1216.1 3.305 1216.04 3.51729 1215.87 3.60603L1208.02 7.77435C1207.86 7.86309 1207.65 7.79469 1207.55 7.62157Z" fill="#72AAEA"/>
<path fill-rule="evenodd" clip-rule="evenodd" d="M1206.79 31.2725C1206.98 31.2886 1207.12 31.4551 1207.11 31.6443L1206.63 41.4804C1206.62 41.6697 1206.46 41.81 1206.27 41.7939C1206.09 41.7778 1205.94 41.6113 1205.95 41.4221L1206.43 31.586C1206.44 31.3967 1206.6 31.2564 1206.79 31.2725Z" fill="#72AAEA"/>
<path fill-rule="evenodd" clip-rule="evenodd" d="M1178.15 13.9682C1178.24 13.8057 1178.44 13.7538 1178.61 13.8522L1186.43 18.5497C1186.6 18.6481 1186.66 18.8596 1186.56 19.0221C1186.47 19.1845 1186.27 19.2364 1186.1 19.138L1178.28 14.4405C1178.11 14.3421 1178.05 14.1306 1178.15 13.9682Z" fill="#72AAEA"/>
<path fill-rule="evenodd" clip-rule="evenodd" d="M861.512 180.929C854.486 180.929 848.796 186.619 848.796 193.635C848.796 195.24 849.092 196.772 849.638 198.187L849.639 198.189C850.409 200.221 851.699 202.004 853.339 203.375L853.34 203.376C855.257 204.989 857.658 206.046 860.301 206.297C860.695 206.333 861.098 206.351 861.512 206.351C864.872 206.351 867.936 205.043 870.212 202.893L870.214 202.891C872.677 200.589 874.218 197.292 874.218 193.635C874.218 190.866 873.331 188.304 871.826 186.216L871.825 186.215C870.598 184.504 868.95 183.115 867.032 182.193L867.03 182.192C865.356 181.377 863.484 180.929 861.512 180.929ZM847.867 193.635C847.867 186.106 853.973 180 861.512 180C863.626 180 865.636 180.481 867.436 181.356C869.493 182.346 871.262 183.837 872.58 185.674C874.195 187.914 875.147 190.665 875.147 193.635C875.147 197.557 873.493 201.097 870.849 203.569C868.407 205.876 865.117 207.28 861.512 207.28C861.071 207.28 860.639 207.261 860.216 207.222L860.214 207.222C857.377 206.953 854.8 205.818 852.742 204.088C850.984 202.617 849.599 200.704 848.771 198.52C848.184 197 847.867 195.355 847.867 193.635Z" fill="#72AAEA"/>
<path fill-rule="evenodd" clip-rule="evenodd" d="M870.533 194.443C869.669 194.443 868.973 195.143 868.973 196.013C868.973 196.88 869.675 197.582 870.543 197.582C871.41 197.582 872.112 196.88 872.112 196.013C872.112 195.148 871.403 194.443 870.533 194.443ZM868.044 196.013C868.044 194.635 869.15 193.514 870.533 193.514C871.911 193.514 873.041 194.63 873.041 196.013C873.041 197.393 871.923 198.511 870.543 198.511C869.162 198.511 868.044 197.393 868.044 196.013Z" fill="#72AAEA"/>
<path fill-rule="evenodd" clip-rule="evenodd" d="M849.793 198.57C850.521 200.315 851.637 201.863 853.028 203.105C853.487 202.602 853.768 201.933 853.768 201.196C853.768 199.624 852.49 198.345 850.907 198.345C850.508 198.345 850.131 198.424 849.793 198.57ZM848.962 197.96C849.53 197.606 850.201 197.416 850.907 197.416C853.002 197.416 854.697 199.109 854.697 201.196C854.697 202.362 854.166 203.401 853.341 204.089C853.168 204.233 852.918 204.232 852.745 204.088C850.986 202.617 849.601 200.704 848.773 198.519C848.694 198.311 848.773 198.077 848.962 197.96Z" fill="#72AAEA"/>
<path fill-rule="evenodd" clip-rule="evenodd" d="M865.627 200.648C862.856 200.648 860.611 202.901 860.611 205.673C860.611 205.894 860.625 206.112 860.654 206.325C860.935 206.342 861.221 206.351 861.512 206.351C864.745 206.351 867.704 205.14 869.951 203.132C869.084 201.648 867.474 200.648 865.627 200.648ZM859.682 205.673C859.682 202.39 862.341 199.719 865.627 199.719C867.965 199.719 869.98 201.071 870.947 203.024C871.038 203.207 870.998 203.428 870.85 203.568C868.407 205.876 865.118 207.28 861.512 207.28C861.071 207.28 860.639 207.261 860.216 207.222C860.013 207.204 859.845 207.055 859.803 206.855C859.722 206.47 859.682 206.076 859.682 205.673Z" fill="#72AAEA"/>
<path fill-rule="evenodd" clip-rule="evenodd" d="M858.318 182.814C856.903 182.814 855.755 183.962 855.755 185.378C855.755 186.794 856.903 187.941 858.318 187.941C859.734 187.941 860.882 186.794 860.882 185.378C860.882 183.962 859.734 182.814 858.318 182.814ZM854.826 185.378C854.826 183.449 856.39 181.885 858.318 181.885C860.247 181.885 861.811 183.449 861.811 185.378C861.811 187.306 860.247 188.87 858.318 188.87C856.39 188.87 854.826 187.306 854.826 185.378Z" fill="#72AAEA"/>
<path fill-rule="evenodd" clip-rule="evenodd" d="M859.72 193.041C859.206 193.041 858.782 193.465 858.782 193.979C858.782 194.494 859.206 194.917 859.72 194.917C860.235 194.917 860.658 194.494 860.658 193.979C860.658 193.465 860.235 193.041 859.72 193.041ZM857.853 193.979C857.853 192.952 858.693 192.112 859.72 192.112C860.748 192.112 861.587 192.952 861.587 193.979C861.587 195.007 860.748 195.846 859.72 195.846C858.693 195.846 857.853 195.007 857.853 193.979Z" fill="#72AAEA"/>
<path fill-rule="evenodd" clip-rule="evenodd" d="M867.007 181.367C867.139 181.295 867.297 181.29 867.433 181.356C869.49 182.346 871.26 183.837 872.578 185.674C872.663 185.793 872.688 185.946 872.643 186.086C872.598 186.226 872.49 186.336 872.351 186.384C871.941 186.524 871.499 186.585 871.058 186.585C868.664 186.585 866.739 184.648 866.739 182.257C866.739 182.072 866.749 181.896 866.77 181.72C866.787 181.571 866.876 181.439 867.007 181.367ZM867.678 182.528C867.815 184.282 869.271 185.657 871.058 185.657C871.17 185.657 871.279 185.652 871.386 185.642C870.367 184.381 869.108 183.321 867.678 182.528Z" fill="#72AAEA"/>
<path fill-rule="evenodd" clip-rule="evenodd" d="M899.942 13.372C900.189 13.4406 900.333 13.6965 900.265 13.9437L897.073 25.4457L904.015 33.0396C904.188 33.2289 904.175 33.5227 903.985 33.6957C903.796 33.8688 903.502 33.8556 903.329 33.6663L896.214 25.8826C896.106 25.7646 896.067 25.5993 896.11 25.4451L899.37 13.6953C899.438 13.4482 899.694 13.3034 899.942 13.372Z" fill="#72AAEA"/>
<path fill-rule="evenodd" clip-rule="evenodd" d="M903.528 18.2953C903.693 18.0986 903.986 18.0726 904.182 18.2372L912.319 25.0455C912.516 25.2101 912.542 25.503 912.377 25.6997C912.212 25.8964 911.92 25.9225 911.723 25.7579L903.586 18.9495C903.389 18.7849 903.363 18.492 903.528 18.2953Z" fill="#72AAEA"/>
<path fill-rule="evenodd" clip-rule="evenodd" d="M909.662 16.4914C909.9 16.5881 910.014 16.8591 909.917 17.0967L906.397 25.7441C906.3 25.9817 906.029 26.0959 905.792 25.9992C905.554 25.9025 905.44 25.6315 905.536 25.3939L909.057 16.7465C909.153 16.5089 909.424 16.3947 909.662 16.4914Z" fill="#72AAEA"/>
<path fill-rule="evenodd" clip-rule="evenodd" d="M915.193 23.99C915.449 23.9822 915.663 24.1837 915.671 24.4401L915.207 24.4542C915.671 24.4401 915.671 24.44 915.671 24.4401L915.671 24.4413L915.671 24.4435L915.671 24.4504L915.672 24.4744C915.672 24.4948 915.672 24.5239 915.672 24.5604C915.672 24.6334 915.671 24.7367 915.666 24.8612C915.656 25.1087 915.631 25.4467 915.569 25.7995C915.508 26.1476 915.408 26.5359 915.235 26.8698C915.064 27.2013 914.789 27.5377 914.355 27.6671C914.109 27.7405 913.85 27.6006 913.777 27.3548C913.704 27.109 913.844 26.8504 914.089 26.7771C914.185 26.7486 914.298 26.66 914.41 26.4429C914.521 26.2282 914.601 25.9443 914.654 25.6399C914.706 25.3402 914.729 25.0454 914.738 24.8233C914.742 24.713 914.743 24.6222 914.744 24.5599C914.744 24.5288 914.743 24.5048 914.743 24.4891L914.743 24.472L914.743 24.4684C914.743 24.4684 914.743 24.4685 914.743 24.4684M915.193 23.99C914.936 23.9977 914.735 24.2121 914.743 24.4684Z" fill="#72AAEA"/>
<path fill-rule="evenodd" clip-rule="evenodd" d="M915.866 15.6138C916.019 15.4079 916.31 15.365 916.516 15.5179L921.429 19.1682C921.635 19.3212 921.678 19.6121 921.525 19.818C921.372 20.0239 921.081 20.0668 920.876 19.9138L915.962 16.2635C915.756 16.1106 915.713 15.8197 915.866 15.6138Z" fill="#72AAEA"/>
<path fill-rule="evenodd" clip-rule="evenodd" d="M923.098 12.4428C923.345 12.5114 923.49 12.7674 923.421 13.0146L918.573 30.4767C918.504 30.7238 918.248 30.8685 918.001 30.7999C917.754 30.7313 917.609 30.4753 917.678 30.2282L922.526 12.7661C922.595 12.5189 922.851 12.3742 923.098 12.4428Z" fill="#72AAEA"/>
<path fill-rule="evenodd" clip-rule="evenodd" d="M922.907 6.47719C923.099 6.30739 923.392 6.32557 923.562 6.5178L931.439 15.4346C931.549 15.56 931.584 15.7353 931.53 15.8935L928.167 25.6462C928.084 25.8887 927.819 26.0175 927.577 25.9339C927.334 25.8503 927.206 25.586 927.289 25.3435L930.563 15.8467L922.866 7.13272C922.696 6.94049 922.714 6.647 922.907 6.47719Z" fill="#72AAEA"/>
<path fill-rule="evenodd" clip-rule="evenodd" d="M1012.97 237.697C1013.1 237.837 1013.09 238.054 1012.95 238.182C1009.08 241.701 1007.47 247.322 1009.32 252.567C1011.28 258.126 1016.52 261.586 1022.1 261.532C1022.29 261.53 1022.45 261.682 1022.45 261.872C1022.45 262.061 1022.3 262.216 1022.11 262.218C1016.25 262.274 1010.73 258.639 1008.67 252.795L1008.67 252.794C1006.73 247.28 1008.42 241.373 1012.48 237.674C1012.62 237.547 1012.84 237.557 1012.97 237.697Z" fill="#72AAEA"/>
<path fill-rule="evenodd" clip-rule="evenodd" d="M1035.11 252.226C1035.29 252.287 1035.39 252.482 1035.33 252.661C1033.98 256.606 1030.9 259.918 1026.66 261.416C1026.48 261.48 1026.29 261.386 1026.22 261.207C1026.16 261.029 1026.25 260.833 1026.43 260.77C1030.46 259.344 1033.39 256.193 1034.68 252.439C1034.74 252.26 1034.93 252.164 1035.11 252.226Z" fill="#72AAEA"/>
<path fill-rule="evenodd" clip-rule="evenodd" d="M1034.64 243.655C1032.17 236.663 1024.51 232.99 1017.52 235.452C1017.34 235.515 1017.15 235.421 1017.08 235.242C1017.02 235.064 1017.11 234.868 1017.29 234.805C1024.64 232.217 1032.7 236.078 1035.28 243.427C1035.35 243.605 1035.25 243.801 1035.07 243.864C1034.89 243.927 1034.7 243.833 1034.64 243.655Z" fill="#72AAEA"/>
<path fill-rule="evenodd" clip-rule="evenodd" d="M1028.49 237.853C1028.59 237.696 1028.81 237.654 1028.96 237.76C1031.11 239.207 1032.83 241.331 1033.75 243.962C1036.05 250.468 1032.62 257.594 1026.13 259.886L1026.13 259.887C1021.25 261.601 1016.02 260.112 1012.74 256.514C1012.61 256.374 1012.62 256.157 1012.76 256.029C1012.9 255.902 1013.12 255.912 1013.25 256.052C1016.35 259.453 1021.29 260.859 1025.9 259.239C1032.04 257.072 1035.27 250.338 1033.11 244.19L1033.11 244.19C1032.23 241.703 1030.61 239.696 1028.58 238.329C1028.42 238.223 1028.38 238.01 1028.49 237.853Z" fill="#72AAEA"/>
<path fill-rule="evenodd" clip-rule="evenodd" d="M1018.06 236.975C1020.36 236.162 1022.75 236.108 1024.95 236.688ZM1017.83 236.328C1020.27 235.467 1022.8 235.411 1025.13 236.025C1025.31 236.073 1025.42 236.261 1025.37 236.444C1025.32 236.627 1025.13 236.737 1024.95 236.688M1017.83 236.328L1017.83 236.328ZM1018.06 236.975C1011.92 239.142 1008.68 245.877 1010.85 252.024C1010.91 252.203 1010.82 252.399 1010.64 252.462C1010.46 252.525 1010.27 252.431 1010.2 252.252C1007.91 245.747 1011.33 238.621 1017.83 236.328" fill="#72AAEA"/>
<path fill-rule="evenodd" clip-rule="evenodd" d="M1017.16 240.319C1017.32 240.22 1017.53 240.27 1017.63 240.431L1022.27 247.931C1022.35 248.052 1022.34 248.207 1022.25 248.32L1018.02 253.81C1017.91 253.96 1017.69 253.988 1017.54 253.872C1017.39 253.757 1017.36 253.541 1017.48 253.391L1021.56 248.09L1017.05 240.792C1016.95 240.631 1017 240.419 1017.16 240.319Z" fill="#72AAEA"/>
<path fill-rule="evenodd" clip-rule="evenodd" d="M1290.65 479.057C1290.7 479.016 1290.76 478.996 1290.83 479.001L1300.96 479.798C1301.11 479.81 1301.23 479.942 1301.23 480.106L1301.87 494.554C1301.87 494.664 1301.83 494.769 1301.75 494.833L1294.31 500.812C1294.25 500.856 1294.18 500.877 1294.12 500.872L1284.93 500.119C1284.8 500.108 1284.69 499.992 1284.67 499.841L1282.87 485.289C1282.85 485.168 1282.9 485.047 1282.99 484.978L1290.65 479.057ZM1290.89 479.656L1283.47 485.398L1285.21 499.492L1294.06 500.216L1301.28 494.409L1300.67 480.425L1290.89 479.656Z" fill="#72AAEA"/>
<path fill-rule="evenodd" clip-rule="evenodd" d="M1292.2 493.535C1292.25 493.49 1292.32 493.469 1292.39 493.475L1301.6 494.246C1301.76 494.26 1301.88 494.415 1301.87 494.594C1301.85 494.772 1301.72 494.906 1301.56 494.893L1292.45 494.13L1285.12 500.059C1284.99 500.164 1284.81 500.131 1284.72 499.986C1284.63 499.84 1284.66 499.638 1284.79 499.533L1292.2 493.535Z" fill="#72AAEA"/>
<path fill-rule="evenodd" clip-rule="evenodd" d="M1290.78 479.002C1290.93 478.981 1291.08 479.108 1291.1 479.285L1292.65 493.759C1292.67 493.937 1292.56 494.098 1292.4 494.12C1292.24 494.141 1292.1 494.015 1292.08 493.837L1290.52 479.363C1290.5 479.185 1290.62 479.024 1290.78 479.002Z" fill="#72AAEA"/>
<path fill-rule="evenodd" clip-rule="evenodd" d="M1301.18 479.928C1301.27 480.072 1301.24 480.275 1301.12 480.382L1293.44 486.821C1293.38 486.871 1293.31 486.893 1293.23 486.883L1283.12 485.567C1282.96 485.546 1282.85 485.386 1282.87 485.208C1282.89 485.03 1283.03 484.902 1283.19 484.923L1293.19 486.224L1300.77 479.862C1300.9 479.755 1301.08 479.785 1301.18 479.928Z" fill="#72AAEA"/>
<path fill-rule="evenodd" clip-rule="evenodd" d="M1293.25 486.238C1293.4 486.225 1293.54 486.36 1293.55 486.538L1294.42 500.526C1294.44 500.704 1294.32 500.859 1294.16 500.872C1294 500.884 1293.86 500.75 1293.85 500.571L1292.98 486.584C1292.97 486.405 1293.09 486.25 1293.25 486.238Z" fill="#72AAEA"/>
<path fill-rule="evenodd" clip-rule="evenodd" d="M911.448 363.045C911.586 362.975 911.751 362.987 911.878 363.076L927.64 374.15C927.762 374.237 927.83 374.382 927.816 374.532C927.802 374.681 927.709 374.812 927.572 374.874L911.459 382.19C911.328 382.249 911.176 382.237 911.056 382.158C910.936 382.079 910.865 381.944 910.867 381.801L911.219 363.411C911.222 363.256 911.31 363.115 911.448 363.045ZM912.041 364.213L911.717 381.153L926.559 374.414L912.041 364.213Z" fill="#72AAEA"/>
<path fill-rule="evenodd" clip-rule="evenodd" d="M911.445 363.048C911.65 362.941 911.903 363.02 912.01 363.224L919.686 377.864C919.793 378.069 919.714 378.322 919.51 378.429C919.305 378.537 919.052 378.458 918.945 378.253L911.269 363.613C911.161 363.408 911.24 363.155 911.445 363.048Z" fill="#72AAEA"/>
<path fill-rule="evenodd" clip-rule="evenodd" d="M919.765 374.426C919.971 374.326 920.219 374.41 920.322 374.615L921.577 377.118C921.681 377.324 921.597 377.576 921.391 377.679C921.184 377.783 920.933 377.699 920.829 377.493L919.758 375.359L918.263 376.083C918.055 376.184 917.805 376.097 917.704 375.889C917.603 375.681 917.69 375.43 917.898 375.33L919.765 374.426Z" fill="#72AAEA"/>
<path fill-rule="evenodd" clip-rule="evenodd" d="M1224.91 202.393C1225.02 202.172 1225.29 202.081 1225.51 202.189L1233.67 206.196C1233.89 206.305 1233.98 206.572 1233.87 206.793C1233.76 207.014 1233.49 207.106 1233.27 206.997L1225.12 202.99C1224.9 202.882 1224.8 202.614 1224.91 202.393Z" fill="#72AAEA"/>
<path fill-rule="evenodd" clip-rule="evenodd" d="M1230.96 199.098C1231.19 199.163 1231.33 199.408 1231.27 199.646L1228.93 208.168C1228.86 208.406 1228.62 208.545 1228.38 208.48C1228.14 208.415 1228 208.17 1228.07 207.932L1230.41 199.41C1230.47 199.172 1230.72 199.032 1230.96 199.098Z" fill="#72AAEA"/>
<path fill-rule="evenodd" clip-rule="evenodd" d="M1231.97 195.371L1231.67 195.039C1231.49 195.204 1231.47 195.486 1231.64 195.669C1231.8 195.852 1232.08 195.867 1232.26 195.704L1232.27 195.701C1232.27 195.697 1232.28 195.69 1232.29 195.68C1232.32 195.662 1232.35 195.635 1232.4 195.605C1232.5 195.544 1232.62 195.48 1232.75 195.446C1232.88 195.413 1233.01 195.413 1233.12 195.457C1233.24 195.5 1233.39 195.603 1233.55 195.859C1233.68 196.065 1233.74 196.363 1233.71 196.748C1233.67 197.128 1233.56 197.545 1233.42 197.942C1233.28 198.337 1233.12 198.697 1232.98 198.959C1232.92 199.089 1232.86 199.194 1232.82 199.266C1232.8 199.302 1232.79 199.33 1232.78 199.348L1232.76 199.368L1232.76 199.372L1232.76 199.373L1232.76 199.373C1232.76 199.373 1232.76 199.373 1232.76 199.373C1232.67 199.536 1232.68 199.743 1232.8 199.888C1232.93 200.033 1233.13 200.085 1233.3 200.017L1236.58 198.768C1236.81 198.68 1236.93 198.422 1236.84 198.192C1236.75 197.962 1236.49 197.846 1236.26 197.934L1234.05 198.777C1234.12 198.61 1234.2 198.43 1234.26 198.242C1234.42 197.806 1234.56 197.308 1234.6 196.821C1234.63 196.339 1234.58 195.818 1234.31 195.382C1234.06 194.996 1233.77 194.746 1233.44 194.622C1233.11 194.498 1232.79 194.516 1232.54 194.581C1232.28 194.646 1232.07 194.76 1231.92 194.853C1231.85 194.9 1231.79 194.944 1231.74 194.977C1231.72 194.993 1231.71 195.007 1231.69 195.018L1231.68 195.031L1231.67 195.036L1231.67 195.037L1231.67 195.038L1231.67 195.038C1231.67 195.039 1231.67 195.039 1231.97 195.371Z" fill="#72AAEA"/>
<path fill-rule="evenodd" clip-rule="evenodd" d="M1269.79 388.318C1269.96 388.132 1270.26 388.124 1270.44 388.3L1275.02 392.628C1275.21 392.804 1275.22 393.098 1275.04 393.285C1274.86 393.471 1274.57 393.479 1274.38 393.303L1269.8 388.975C1269.62 388.799 1269.61 388.505 1269.79 388.318Z" fill="#72AAEA"/>
<path fill-rule="evenodd" clip-rule="evenodd" d="M1274.96 387.118C1275.17 387.261 1275.23 387.549 1275.09 387.762L1271.25 393.493C1271.11 393.706 1270.82 393.764 1270.6 393.621C1270.39 393.478 1270.33 393.19 1270.48 392.977L1274.31 387.246C1274.46 387.033 1274.74 386.975 1274.96 387.118Z" fill="#72AAEA"/>
<path fill-rule="evenodd" clip-rule="evenodd" d="M1284.23 387.277C1284.32 387.517 1284.2 387.784 1283.96 387.874L1279.37 389.583C1279.13 389.672 1278.86 389.55 1278.77 389.31C1278.68 389.069 1278.81 388.802 1279.05 388.713L1283.64 387.003C1283.88 386.914 1284.14 387.036 1284.23 387.277Z" fill="#72AAEA"/>
<path fill-rule="evenodd" clip-rule="evenodd" d="M1285.65 382.358C1285.82 382.165 1286.11 382.147 1286.3 382.317L1289.09 384.778C1289.28 384.948 1289.3 385.242 1289.13 385.434C1288.96 385.626 1288.67 385.644 1288.47 385.475L1285.69 383.013C1285.5 382.843 1285.48 382.55 1285.65 382.358Z" fill="#72AAEA"/>
<path fill-rule="evenodd" clip-rule="evenodd" d="M1291.05 379.256C1291.29 379.328 1291.43 379.586 1291.36 379.832L1287.83 391.944C1287.76 392.19 1287.5 392.332 1287.26 392.26C1287.01 392.188 1286.87 391.93 1286.94 391.684L1290.47 379.572C1290.54 379.326 1290.8 379.184 1291.05 379.256Z" fill="#72AAEA"/>
<path fill-rule="evenodd" clip-rule="evenodd" d="M782.233 329.452C781.713 330.256 781.182 331.564 780.726 333.637C779.871 337.522 779.515 341.078 779.282 343.404C779.265 343.571 779.249 343.732 779.233 343.886C779.175 344.459 779.123 344.945 779.071 345.321C779.045 345.509 779.017 345.675 778.988 345.813C778.96 345.945 778.925 346.077 778.875 346.182C778.851 346.234 778.81 346.308 778.741 346.373C778.664 346.445 778.533 346.518 778.365 346.496C778.217 346.476 778.121 346.39 778.073 346.339C778.021 346.283 777.983 346.221 777.954 346.168C777.847 345.966 777.741 345.62 777.625 345.161C777.571 344.948 777.701 344.731 777.914 344.677C778.074 344.637 778.235 344.699 778.33 344.821C778.364 344.531 778.399 344.191 778.439 343.805C778.454 343.651 778.47 343.49 778.487 343.322C778.72 340.996 779.081 337.399 779.946 333.466C780.413 331.348 780.969 329.937 781.561 329.02C782.157 328.099 782.807 327.65 783.455 327.524C784.095 327.399 784.648 327.605 785.02 327.819C785.208 327.928 785.359 328.043 785.463 328.131C785.515 328.175 785.556 328.214 785.585 328.242C785.6 328.256 785.612 328.267 785.62 328.276L785.631 328.287L785.634 328.29L785.635 328.292L785.636 328.292C785.636 328.292 785.636 328.293 785.344 328.564L785.636 328.293C785.786 328.454 785.777 328.706 785.616 328.856C785.454 329.005 785.203 328.996 785.052 328.836C785.052 328.836 785.052 328.836 785.052 328.836L785.052 328.836L785.049 328.833C785.045 328.829 785.039 328.823 785.03 328.814C785.012 328.796 784.983 328.77 784.945 328.738C784.869 328.673 784.758 328.589 784.621 328.51C784.343 328.349 783.99 328.231 783.608 328.306C783.235 328.378 782.749 328.653 782.233 329.452ZM785.052 328.835C785.052 328.835 785.052 328.835 785.052 328.836ZM778.152 345.843C778.151 345.847 778.151 345.846 778.152 345.843Z" fill="#72AAEA"/>
<path fill-rule="evenodd" clip-rule="evenodd" d="M783.594 333.982C783.678 334.185 783.58 334.418 783.376 334.501L777.586 336.868C777.382 336.951 777.149 336.854 777.065 336.65C776.981 336.446 777.079 336.214 777.283 336.13L783.073 333.764C783.277 333.681 783.51 333.778 783.594 333.982Z" fill="#72AAEA"/>
<path fill-rule="evenodd" clip-rule="evenodd" d="M788.371 331.462C788.37 331.462 788.371 331.462 788.371 331.462L788.369 331.465L788.363 331.478C788.357 331.49 788.348 331.509 788.337 331.534C788.315 331.584 788.282 331.658 788.241 331.755C788.16 331.949 788.048 332.231 787.93 332.579C787.694 333.277 787.434 334.233 787.331 335.276C787.126 337.364 787.554 339.712 789.969 341.118C790.16 341.229 790.224 341.473 790.113 341.663C790.002 341.853 789.757 341.917 789.567 341.806C786.767 340.177 786.316 337.438 786.536 335.198C786.647 334.077 786.925 333.059 787.174 332.324C787.299 331.955 787.417 331.656 787.504 331.447C787.548 331.343 787.584 331.262 787.61 331.205C787.622 331.177 787.632 331.155 787.64 331.14L787.648 331.123L787.65 331.118L787.651 331.116C787.651 331.116 787.651 331.115 788.011 331.289L787.651 331.115C787.747 330.917 787.986 330.834 788.185 330.93C788.383 331.026 788.466 331.264 788.371 331.462Z" fill="#72AAEA"/>
<path fill-rule="evenodd" clip-rule="evenodd" d="M788.685 333.476C788.815 333.298 789.064 333.259 789.242 333.389L793.339 336.368C793.518 336.498 793.557 336.747 793.427 336.925C793.297 337.102 793.047 337.142 792.869 337.012L788.772 334.032C788.594 333.903 788.555 333.653 788.685 333.476Z" fill="#72AAEA"/>
<path fill-rule="evenodd" clip-rule="evenodd" d="M792.427 332.059C792.613 332.175 792.67 332.421 792.552 332.608L789.35 337.699C789.233 337.885 788.986 337.941 788.8 337.824C788.613 337.707 788.556 337.461 788.674 337.275L791.876 332.184C791.993 331.998 792.24 331.942 792.427 332.059Z" fill="#72AAEA"/>
<path fill-rule="evenodd" clip-rule="evenodd" d="M309.08 46.5859C308.337 51.1059 311.407 55.3712 315.938 56.1128C320.469 56.8544 324.744 53.7914 325.488 49.2714C326.231 44.7514 323.161 40.4861 318.63 39.7445C314.099 39.003 309.823 42.066 309.08 46.5859ZM315.809 56.899C310.842 56.0862 307.477 51.4111 308.292 46.457C309.107 41.5028 313.793 38.1456 318.759 38.9584C323.725 39.7712 327.091 44.4462 326.276 49.4004C325.461 54.3545 320.775 57.7118 315.809 56.899Z" fill="#72AAEA"/>
<path fill-rule="evenodd" clip-rule="evenodd" d="M327.261 42.2691C322.249 43.295 319.019 48.1799 320.048 53.1798C321.076 58.1797 325.973 61.4013 330.985 60.3754C335.997 59.3494 339.226 54.4645 338.198 49.4646C337.169 44.4647 332.273 41.2432 327.261 42.2691ZM319.265 53.3399C318.148 47.909 321.656 42.603 327.1 41.4886C332.544 40.3743 337.863 43.8736 338.98 49.3045C340.097 54.7354 336.589 60.0414 331.145 61.1558C325.701 62.2701 320.382 58.7709 319.265 53.3399Z" fill="#72AAEA"/>
<path fill-rule="evenodd" clip-rule="evenodd" d="M325.598 44.2095C325.673 44.4167 325.564 44.6446 325.356 44.7185L321.347 46.1446C321.14 46.2185 320.911 46.1104 320.837 45.9031C320.763 45.6959 320.871 45.468 321.079 45.3942L325.088 43.9681C325.296 43.8942 325.524 44.0023 325.598 44.2095Z" fill="#72AAEA"/>
<path fill-rule="evenodd" clip-rule="evenodd" d="M326.158 45.8573C326.233 46.0642 326.126 46.2925 325.919 46.3673L320.153 48.4467C319.945 48.5215 319.716 48.4144 319.641 48.2075C319.566 48.0006 319.674 47.7722 319.881 47.6974L325.647 45.6181C325.855 45.5433 326.083 45.6504 326.158 45.8573Z" fill="#72AAEA"/>
<path fill-rule="evenodd" clip-rule="evenodd" d="M326.371 47.8409C326.451 48.0462 326.348 48.2767 326.142 48.3557L319.705 50.8255C319.499 50.9044 319.268 50.802 319.189 50.5967C319.11 50.3913 319.213 50.1608 319.419 50.0819L325.855 47.6121C326.061 47.5331 326.292 47.6356 326.371 47.8409Z" fill="#72AAEA"/>
<path fill-rule="evenodd" clip-rule="evenodd" d="M325.909 50.5351C326 50.7352 325.912 50.9715 325.712 51.063L319.842 53.7399C319.641 53.8313 319.404 53.7433 319.312 53.5432C319.221 53.3431 319.309 53.1068 319.51 53.0153L325.38 50.3384C325.58 50.2469 325.817 50.335 325.909 50.5351Z" fill="#72AAEA"/>
<path fill-rule="evenodd" clip-rule="evenodd" d="M324.874 52.6352C324.958 52.8383 324.862 53.0715 324.658 53.1559L320.202 55.0043C319.998 55.0887 319.765 54.9925 319.68 54.7894C319.595 54.5862 319.692 54.3531 319.895 54.2686L324.352 52.4203C324.555 52.3358 324.789 52.432 324.874 52.6352Z" fill="#72AAEA"/>
<path fill-rule="evenodd" clip-rule="evenodd" d="M320.784 36.3047C320.516 36.4532 320.24 36.5826 319.971 36.6788C319.516 36.8414 318.992 36.9424 318.563 36.7726C318.331 36.6808 318.139 36.5143 318.02 36.272C317.906 36.0394 317.87 35.7625 317.889 35.4584C317.93 34.8379 318.177 34.3719 318.56 34.0629C318.933 33.7625 319.396 33.6403 319.831 33.6213C320.266 33.6024 320.704 33.6851 321.06 33.8307C321.238 33.9037 321.406 33.9968 321.545 34.1103C321.659 34.2032 321.77 34.3227 321.84 34.4704C321.977 34.3083 322.219 34.2814 322.388 34.4114C322.561 34.5439 322.596 34.7905 322.466 34.9652C322.466 34.9652 322.466 34.9652 322.466 34.9652L322.466 34.9653L322.465 34.9661L322.462 34.9699L322.45 34.9863C322.439 35.0011 322.423 35.0232 322.403 35.0517C322.362 35.1087 322.304 35.1913 322.237 35.2918C322.101 35.4939 321.929 35.764 321.78 36.0435C321.626 36.3293 321.511 36.5978 321.468 36.8025C321.447 36.904 321.448 36.9552 321.452 36.9775C321.622 37.099 321.67 37.3324 321.558 37.5115C321.441 37.6981 321.195 37.7551 321.008 37.6387C320.604 37.3877 320.626 36.9238 320.686 36.6385C320.709 36.5299 320.743 36.4176 320.784 36.3047ZM321.275 35.0181C321.167 35.1053 321.05 35.193 320.925 35.279C320.533 35.5504 320.097 35.7875 319.701 35.9289C319.285 36.078 319.001 36.089 318.857 36.032C318.802 36.0104 318.766 35.9788 318.737 35.9208C318.704 35.8532 318.672 35.7278 318.686 35.51C318.714 35.0869 318.87 34.8368 319.062 34.6825C319.264 34.5196 319.546 34.4312 319.866 34.4173C320.184 34.4034 320.507 34.4656 320.756 34.5677C320.88 34.6185 320.976 34.675 321.04 34.7274C321.105 34.78 321.119 34.8127 321.12 34.8146C321.12 34.8147 321.12 34.8147 321.12 34.8147C321.149 34.9011 321.205 34.9709 321.275 35.0181ZM321.457 36.9919C321.457 36.9923 321.455 36.99 321.454 36.9837C321.457 36.9884 321.458 36.9915 321.457 36.9919Z" fill="#72AAEA"/>
<path fill-rule="evenodd" clip-rule="evenodd" d="M337.314 36.9257C337.512 37.021 337.596 37.259 337.5 37.4573L336.328 39.8893C336.618 39.7468 336.946 39.668 337.296 39.7284L337.299 39.7288C337.837 39.8248 338.207 40.1358 338.357 40.5647C338.5 40.9712 338.426 41.4219 338.225 41.7915C338.022 42.1657 337.672 42.4918 337.209 42.6446C336.739 42.7996 336.187 42.7651 335.605 42.4775C335.408 42.3797 335.327 42.1407 335.425 41.9436C335.523 41.7465 335.763 41.666 335.96 41.7637C336.377 41.9701 336.712 41.9694 336.958 41.8882C337.211 41.8047 337.408 41.6244 337.523 41.412C337.641 41.1951 337.657 40.979 337.604 40.8285C337.559 40.7007 337.446 40.5648 337.159 40.5133C336.966 40.4804 336.743 40.5425 336.484 40.7209C336.225 40.8991 335.972 41.1667 335.743 41.4611C335.517 41.7526 335.329 42.0537 335.196 42.2837C335.13 42.3982 335.078 42.4938 335.043 42.5602C335.026 42.5933 335.013 42.6191 335.004 42.6362L334.995 42.6551L334.993 42.6593L334.993 42.6601C334.897 42.8581 334.658 42.9414 334.46 42.846C334.261 42.7507 334.177 42.5127 334.273 42.3145L334.274 42.3131L336.781 37.112C336.876 36.9138 337.115 36.8303 337.314 36.9257Z" fill="#72AAEA"/>
<path fill-rule="evenodd" clip-rule="evenodd" d="M247.156 419.248C247.307 419.088 247.56 419.081 247.72 419.232L251.658 422.945C251.818 423.096 251.825 423.348 251.674 423.508C251.522 423.668 251.269 423.675 251.109 423.523L247.172 419.811C247.012 419.66 247.005 419.408 247.156 419.248Z" fill="#72AAEA"/>
<path fill-rule="evenodd" clip-rule="evenodd" d="M251.604 418.219C251.787 418.341 251.836 418.589 251.713 418.771L248.415 423.687C248.292 423.87 248.044 423.919 247.861 423.796C247.678 423.674 247.629 423.427 247.751 423.244L251.05 418.328C251.172 418.145 251.42 418.096 251.604 418.219Z" fill="#72AAEA"/>
<path fill-rule="evenodd" clip-rule="evenodd" d="M259.576 418.355C259.653 418.561 259.548 418.79 259.342 418.867L255.396 420.333C255.19 420.41 254.96 420.305 254.883 420.099C254.806 419.892 254.911 419.663 255.118 419.586L259.063 418.12C259.269 418.044 259.499 418.148 259.576 418.355Z" fill="#72AAEA"/>
<path fill-rule="evenodd" clip-rule="evenodd" d="M260.794 414.135C260.94 413.97 261.192 413.955 261.358 414.1L263.754 416.212C263.919 416.357 263.934 416.609 263.788 416.774C263.642 416.939 263.39 416.954 263.225 416.809L260.829 414.697C260.664 414.552 260.648 414.3 260.794 414.135Z" fill="#72AAEA"/>
<path fill-rule="evenodd" clip-rule="evenodd" d="M265.436 411.475C265.648 411.537 265.77 411.758 265.708 411.969L262.673 422.358C262.611 422.569 262.39 422.69 262.178 422.629C261.966 422.567 261.845 422.346 261.906 422.135L264.941 411.746C265.003 411.535 265.225 411.413 265.436 411.475Z" fill="#72AAEA"/>
<path fill-rule="evenodd" clip-rule="evenodd" d="M648.579 360.154C648.654 360.103 648.743 360.079 648.834 360.085L662.865 361.065C663.067 361.079 663.226 361.241 663.236 361.443L664.115 379.193C664.121 379.328 664.059 379.458 663.948 379.537L653.646 386.882C653.57 386.936 653.478 386.962 653.385 386.955L640.671 386.031C640.483 386.018 640.33 385.875 640.304 385.689L637.812 367.811C637.792 367.662 637.857 367.513 637.982 367.428L648.579 360.154ZM648.917 360.889L638.637 367.945L641.051 385.26L653.299 386.15L663.306 379.015L662.456 361.835L648.917 360.889Z" fill="#72AAEA"/>
<path fill-rule="evenodd" clip-rule="evenodd" d="M650.725 377.941C650.801 377.887 650.894 377.86 650.988 377.867L663.742 378.815C663.962 378.832 664.127 379.023 664.111 379.242C664.094 379.462 663.903 379.626 663.683 379.61L651.074 378.673L640.929 385.957C640.75 386.086 640.501 386.045 640.372 385.867C640.243 385.688 640.284 385.439 640.463 385.311L650.725 377.941Z" fill="#72AAEA"/>
<path fill-rule="evenodd" clip-rule="evenodd" d="M648.755 360.087C648.974 360.06 649.172 360.216 649.199 360.435L651.355 378.217C651.382 378.435 651.226 378.634 651.007 378.66C650.788 378.686 650.589 378.531 650.562 378.312L648.406 360.53C648.38 360.312 648.536 360.113 648.755 360.087Z" fill="#72AAEA"/>
<path fill-rule="evenodd" clip-rule="evenodd" d="M663.158 361.224C663.289 361.4 663.253 361.65 663.076 361.782L652.447 369.693C652.365 369.754 652.263 369.781 652.162 369.769L638.162 368.152C637.943 368.127 637.786 367.929 637.811 367.71C637.837 367.492 638.035 367.335 638.254 367.361L652.096 368.96L662.599 361.143C662.775 361.011 663.026 361.048 663.158 361.224Z" fill="#72AAEA"/>
<path fill-rule="evenodd" clip-rule="evenodd" d="M652.177 368.976C652.397 368.961 652.588 369.126 652.603 369.346L653.809 386.53C653.825 386.75 653.659 386.94 653.439 386.956C653.219 386.971 653.028 386.805 653.013 386.586L651.807 369.401C651.791 369.182 651.957 368.991 652.177 368.976Z" fill="#72AAEA"/>
<path fill-rule="evenodd" clip-rule="evenodd" d="M74.9408 370.006C75.1154 369.651 75.5451 369.505 75.9005 369.679L89.0077 376.103C89.3631 376.277 89.5097 376.706 89.3351 377.06C89.1605 377.415 88.7308 377.561 88.3754 377.387L75.2682 370.963C74.9128 370.789 74.7662 370.361 74.9408 370.006Z" fill="#72AAEA"/>
<path fill-rule="evenodd" clip-rule="evenodd" d="M84.649 364.725C85.0308 364.829 85.2555 365.223 85.1507 365.604L81.3935 379.266C81.2888 379.647 80.8943 379.871 80.5124 379.767C80.1305 379.662 79.9058 379.268 80.0106 378.888L83.7678 365.225C83.8726 364.844 84.2671 364.62 84.649 364.725Z" fill="#72AAEA"/>
<path fill-rule="evenodd" clip-rule="evenodd" d="M86.2836 358.748L85.8041 358.216C85.5097 358.48 85.4856 358.932 85.7504 359.226C86.0143 359.519 86.4655 359.544 86.76 359.282L86.7665 359.277C86.7741 359.271 86.7876 359.259 86.8066 359.245C86.8449 359.215 86.9038 359.172 86.9787 359.124C87.1329 359.026 87.333 358.923 87.5469 358.869C87.7561 358.817 87.9549 358.816 88.1422 358.886C88.3256 358.955 88.5722 359.12 88.8323 359.531C89.0419 359.862 89.1279 360.339 89.0772 360.956C89.0271 361.565 88.8497 362.233 88.6215 362.871C88.395 363.504 88.1281 364.08 87.9165 364.5C87.8111 364.71 87.7203 364.878 87.6566 364.993C87.6247 365.051 87.5997 365.095 87.583 365.124L87.5645 365.156L87.5603 365.163L87.5597 365.164L87.5595 365.164C87.5595 365.164 87.5595 365.164 87.5595 365.164C87.4042 365.426 87.4317 365.757 87.6281 365.99C87.8246 366.222 88.1471 366.306 88.432 366.197L93.695 364.194C94.065 364.054 94.2505 363.64 94.1094 363.271C93.9682 362.902 93.5539 362.717 93.1839 362.858L89.6339 364.209C89.7487 363.942 89.8642 363.653 89.9721 363.352C90.2226 362.652 90.4422 361.853 90.5064 361.073C90.57 360.3 90.4875 359.466 90.0446 358.766C89.6522 358.147 89.1782 357.747 88.6477 357.547C88.1212 357.35 87.6128 357.377 87.1963 357.482C86.7847 357.586 86.4407 357.769 86.2073 357.918C86.0884 357.994 85.9925 358.064 85.9245 358.117C85.8904 358.143 85.863 358.166 85.8428 358.183L85.8179 358.204L85.8096 358.211L85.8065 358.214L85.8052 358.215L85.8046 358.216C85.8044 358.216 85.8041 358.216 86.2836 358.748Z" fill="#72AAEA"/>
<path fill-rule="evenodd" clip-rule="evenodd" d="M444.083 345.211C439.163 347.174 436.769 352.744 438.737 357.652C440.705 362.561 446.288 364.949 451.209 362.986C456.129 361.023 458.522 355.453 456.555 350.544C454.587 345.636 449.004 343.248 444.083 345.211ZM438.301 357.826C436.237 352.678 438.748 346.835 443.909 344.776C449.07 342.717 454.927 345.222 456.991 350.37C459.055 355.519 456.544 361.362 451.383 363.421C446.222 365.479 440.365 362.975 438.301 357.826Z" fill="#72AAEA"/>
<path fill-rule="evenodd" clip-rule="evenodd" d="M454.867 340.24C453.589 341.202 452.016 342.759 450.308 344.759C450.224 344.858 450.076 344.87 449.977 344.786C449.878 344.702 449.866 344.554 449.95 344.456C451.669 342.443 453.267 340.857 454.584 339.866C455.241 339.371 455.84 339.015 456.357 338.832C456.868 338.651 457.35 338.622 457.722 338.868L457.722 338.868C458.005 339.054 458.167 339.362 458.243 339.731C458.319 340.099 458.315 340.551 458.246 341.067C458.109 342.099 457.706 343.439 457.083 344.991C455.836 348.098 453.69 352.098 450.94 356.261L450.94 356.261C448.19 360.421 445.351 363.967 442.98 366.335C441.796 367.517 440.719 368.415 439.822 368.947C439.374 369.213 438.959 369.395 438.59 369.47C438.219 369.546 437.871 369.518 437.588 369.332L437.588 369.332C437.216 369.087 437.053 368.632 437.019 368.092C436.984 367.546 437.076 366.856 437.273 366.059C437.668 364.461 438.499 362.371 439.676 360.004C439.734 359.888 439.874 359.841 439.991 359.898C440.107 359.956 440.154 360.096 440.097 360.212C438.927 362.565 438.112 364.62 437.729 366.171C437.537 366.948 437.457 367.584 437.487 368.063C437.518 368.547 437.658 368.816 437.847 368.941C437.991 369.036 438.199 369.072 438.496 369.011C438.794 368.951 439.158 368.797 439.582 368.545C440.43 368.042 441.475 367.175 442.648 366.004C444.991 363.664 447.81 360.146 450.548 356.003C453.286 351.859 455.416 347.886 456.647 344.817C457.264 343.28 457.651 341.981 457.781 341.005C457.846 340.517 457.844 340.122 457.783 339.825C457.722 339.529 457.607 339.353 457.463 339.258C457.275 339.134 456.972 339.111 456.514 339.273C456.062 339.434 455.507 339.758 454.867 340.24Z" fill="#72AAEA"/>
<path fill-rule="evenodd" clip-rule="evenodd" d="M431.012 351.362C430.769 351.542 430.657 351.721 430.632 351.891L430.632 351.891C430.599 352.106 430.697 352.377 431.011 352.706C431.321 353.032 431.81 353.382 432.469 353.742C433.784 354.462 435.723 355.2 438.102 355.884C438.227 355.919 438.299 356.049 438.263 356.173C438.227 356.298 438.097 356.369 437.972 356.334C435.578 355.645 433.602 354.896 432.243 354.153C431.565 353.782 431.028 353.405 430.67 353.029C430.316 352.656 430.104 352.246 430.168 351.822C430.217 351.488 430.429 351.211 430.732 350.986C431.035 350.761 431.447 350.574 431.944 350.418C432.94 350.106 434.329 349.904 436.002 349.812C439.352 349.627 443.893 349.879 448.835 350.609C453.777 351.339 458.198 352.409 461.351 353.554C462.926 354.126 464.196 354.72 465.058 355.307C465.489 355.6 465.829 355.898 466.053 356.2C466.278 356.503 466.4 356.829 466.35 357.164C466.282 357.626 465.907 357.977 465.391 358.242C464.867 358.511 464.143 358.721 463.262 358.877C461.498 359.191 459.05 359.298 456.186 359.19C456.056 359.185 455.955 359.076 455.96 358.947C455.965 358.818 456.074 358.717 456.203 358.722C459.052 358.829 461.462 358.721 463.18 358.416C464.04 358.264 464.713 358.064 465.176 357.826C465.647 357.584 465.851 357.331 465.886 357.095L465.886 357.095C465.911 356.925 465.856 356.722 465.676 356.479C465.495 356.235 465.202 355.971 464.794 355.694C463.978 355.139 462.75 354.56 461.19 353.994C458.075 352.863 453.687 351.799 448.767 351.072C443.846 350.345 439.337 350.097 436.028 350.279C434.371 350.371 433.027 350.57 432.085 350.865C431.614 351.013 431.256 351.181 431.012 351.362Z" fill="#72AAEA"/>
<path fill-rule="evenodd" clip-rule="evenodd" d="M435.848 336.85C435.544 336.756 435.353 336.782 435.236 336.857C435.146 336.915 435.067 337.023 435.016 337.213C434.964 337.404 434.947 337.663 434.973 337.993C435.023 338.651 435.239 339.539 435.611 340.62C436.353 342.777 437.697 345.652 439.497 348.891C439.56 349.004 439.519 349.147 439.405 349.21C439.292 349.272 439.149 349.231 439.086 349.118C437.28 345.867 435.921 342.965 435.167 340.772C434.79 339.676 434.56 338.745 434.504 338.029C434.477 337.671 434.492 337.353 434.562 337.091C434.633 336.828 434.765 336.604 434.981 336.464L434.981 336.464C435.266 336.281 435.62 336.29 435.986 336.402C436.355 336.515 436.775 336.744 437.236 337.065C438.158 337.709 439.286 338.757 440.545 340.119C443.064 342.846 446.135 346.866 449.163 351.533C452.194 356.2 454.615 360.641 456.078 364.049C456.809 365.752 457.306 367.208 457.518 368.31C457.623 368.861 457.66 369.337 457.613 369.719C457.566 370.097 457.429 370.424 457.144 370.607L457.144 370.607C456.77 370.848 456.276 370.759 455.766 370.524C455.243 370.281 454.624 369.848 453.935 369.259C452.554 368.08 450.848 366.24 448.99 363.931C448.909 363.83 448.925 363.682 449.026 363.601C449.127 363.52 449.275 363.537 449.356 363.637C451.206 365.936 452.891 367.751 454.24 368.904C454.916 369.481 455.497 369.883 455.964 370.099C456.445 370.322 456.733 370.315 456.889 370.214C457.006 370.138 457.108 369.976 457.147 369.661C457.186 369.349 457.158 368.927 457.057 368.398C456.854 367.344 456.373 365.924 455.647 364.234C454.197 360.856 451.79 356.439 448.769 351.787L448.769 351.787C445.751 347.135 442.696 343.138 440.2 340.436C438.95 339.084 437.848 338.064 436.967 337.449C436.525 337.141 436.15 336.942 435.848 336.85Z" fill="#72AAEA"/>
<path d="M458.98 343.306C458.487 344.05 457.487 344.256 456.741 343.765C455.995 343.273 455.788 342.275 456.281 341.531C456.774 340.786 457.774 340.58 458.52 341.072C459.266 341.564 459.468 342.561 458.98 343.306Z" fill="#72AAEA"/>
<path d="M453.635 367.98C453.142 368.725 452.142 368.931 451.396 368.439C450.649 367.947 450.443 366.95 450.936 366.205C451.429 365.461 452.429 365.255 453.175 365.746C453.917 366.238 454.123 367.235 453.635 367.98Z" fill="#72AAEA"/>
<path d="M445.005 351.248C444.513 351.993 443.513 352.199 442.766 351.707C442.02 351.215 441.813 350.218 442.306 349.473C442.799 348.729 443.799 348.523 444.545 349.014C445.292 349.506 445.498 350.504 445.005 351.248Z" fill="#72AAEA"/>
<path fill-rule="evenodd" clip-rule="evenodd" d="M29.6056 209.218C29.6081 209.061 29.6941 208.919 29.8311 208.847L38.8697 204.101C39.0067 204.029 39.1739 204.038 39.3084 204.123L48.1904 209.789C48.3252 209.875 48.4067 210.026 48.4042 210.184L48.2365 220.612C48.2339 220.77 48.148 220.911 48.011 220.983L38.9724 225.729C38.8353 225.801 38.6679 225.792 38.5333 225.706L29.6547 220.029C29.5202 219.943 29.4389 219.792 29.4414 219.634L29.6056 209.218ZM30.4796 209.519L30.3234 219.425L38.767 224.824L47.3626 220.311L47.5221 210.394L39.0754 205.006L30.4796 209.519Z" fill="#72AAEA"/>
<path fill-rule="evenodd" clip-rule="evenodd" d="M28.1674 242.783C28.0491 242.564 28.1256 242.297 28.3381 242.185L37.4059 237.421C37.5434 237.348 37.7113 237.357 37.8463 237.443L46.7493 243.135C46.9581 243.269 47.026 243.544 46.9011 243.75C46.7761 243.956 46.5057 244.015 46.2969 243.881L37.6121 238.329L28.7665 242.977C28.5539 243.088 28.2857 243.002 28.1674 242.783Z" fill="#72AAEA"/>
<path fill-rule="evenodd" clip-rule="evenodd" d="M11.5277 208.66C11.5302 208.502 11.6161 208.36 11.7532 208.288L20.7918 203.542C20.9289 203.47 21.0963 203.479 21.2309 203.565L30.1095 209.243C30.244 209.329 30.3253 209.479 30.3228 209.637L30.1585 220.053C30.156 220.211 30.0701 220.352 29.933 220.424L20.8945 225.17C20.7574 225.242 20.5901 225.234 20.4555 225.148L11.5813 219.478C11.4467 219.392 11.3653 219.242 11.3677 219.084L11.5277 208.66ZM12.4018 208.961L12.2496 218.874L20.689 224.266L29.2846 219.752L29.4408 209.847L20.9972 204.447L12.4018 208.961Z" fill="#72AAEA"/>
<path fill-rule="evenodd" clip-rule="evenodd" d="M21.1445 193.38C21.1469 193.222 21.2329 193.08 21.37 193.008L30.4085 188.262C30.5455 188.19 30.7127 188.199 30.8472 188.285L39.7292 193.95C39.864 194.036 39.9455 194.187 39.943 194.345L39.7753 204.773C39.7728 204.931 39.6868 205.072 39.5498 205.144L30.5112 209.89C30.3741 209.962 30.2067 209.953 30.0721 209.867L21.1936 204.19C21.059 204.104 20.9777 203.953 20.9802 203.795L21.1445 193.38ZM22.0184 193.68L21.8622 203.586L30.3058 208.985L38.9014 204.472L39.0609 194.555L30.6142 189.167L22.0184 193.68Z" fill="#72AAEA"/>
<path d="M30.6838 210.727C31.3529 210.376 31.5939 209.535 31.2222 208.848C30.8504 208.162 30.0067 207.89 29.3376 208.241C28.6685 208.593 28.4275 209.434 28.7992 210.121C29.171 210.807 30.0147 211.079 30.6838 210.727Z" fill="#72AAEA"/>
<path d="M2.66186 204.284C3.33094 203.933 3.57197 203.091 3.20022 202.405C2.82847 201.718 1.98472 201.447 1.31563 201.798C0.646541 202.149 0.40549 202.991 0.777241 203.677C1.14899 204.364 1.99277 204.635 2.66186 204.284Z" fill="#72AAEA"/>
<path d="M45.3122 243.981C44.9415 243.296 45.1834 242.452 45.8505 242.102C46.5176 241.751 47.3645 242.024 47.7351 242.709C48.1058 243.393 47.8638 244.238 47.1967 244.588C46.5297 244.938 45.6828 244.665 45.3122 243.981Z" fill="#72AAEA"/>
<path d="M29.2236 243.984C29.8927 243.632 30.1337 242.791 29.762 242.105C29.3902 241.418 28.5465 241.146 27.8774 241.498C27.2083 241.849 26.9673 242.69 27.339 243.377C27.7108 244.063 28.5545 244.335 29.2236 243.984Z" fill="#72AAEA"/>
<path d="M48.6193 189.672C48.2486 188.988 48.4906 188.143 49.1577 187.793C49.8248 187.443 50.6716 187.716 51.0423 188.4C51.4129 189.085 51.171 189.929 50.5039 190.279C49.8411 190.637 48.9942 190.365 48.6193 189.672Z" fill="#72AAEA"/>
<path d="M38.2944 239.159C38.9635 238.808 39.2045 237.966 38.8328 237.28C38.461 236.593 37.6173 236.322 36.9482 236.673C36.2791 237.024 36.0381 237.866 36.4098 238.552C36.7816 239.239 37.6253 239.51 38.2944 239.159Z" fill="#72AAEA"/>
<path d="M38.5205 195.042C38.1499 194.357 38.3918 193.513 39.0589 193.163C39.726 192.812 40.5728 193.085 40.9435 193.77C41.3141 194.454 41.0722 195.299 40.4051 195.649C39.7423 196.007 38.8954 195.734 38.5205 195.042Z" fill="#72AAEA"/>
<path d="M37.2649 225.96C36.8943 225.275 37.1362 224.431 37.8033 224.081C38.4704 223.73 39.3173 224.003 39.6879 224.688C40.0585 225.372 39.8166 226.217 39.1495 226.567C38.4824 226.917 37.6356 226.644 37.2649 225.96Z" fill="#72AAEA"/>
<path fill-rule="evenodd" clip-rule="evenodd" d="M39.3593 194.594C39.2403 194.373 39.3178 194.101 39.5322 193.987L49.6042 188.649C49.8187 188.535 50.0889 188.623 50.2079 188.844C50.3268 189.066 50.2494 189.338 50.0349 189.452L39.9629 194.79C39.7485 194.904 39.4782 194.816 39.3593 194.594Z" fill="#72AAEA"/>
<path fill-rule="evenodd" clip-rule="evenodd" d="M38.3806 224.884C38.6214 224.905 38.8069 225.118 38.795 225.36L38.1753 237.957C38.1633 238.2 37.9585 238.38 37.7177 238.359C37.4769 238.338 37.2913 238.125 37.3032 237.883L37.923 225.286C37.9349 225.043 38.1398 224.863 38.3806 224.884Z" fill="#72AAEA"/>
<path fill-rule="evenodd" clip-rule="evenodd" d="M1.60415 202.722C1.72169 202.514 1.98762 202.447 2.19811 202.573L12.2438 208.589C12.4543 208.716 12.5296 208.986 12.4121 209.194C12.2945 209.402 12.0286 209.469 11.8181 209.343L1.77243 203.327C1.56194 203.201 1.4866 202.93 1.60415 202.722Z" fill="#72AAEA"/>
<path fill-rule="evenodd" clip-rule="evenodd" d="M102.779 4.79621C96.7378 4.79621 91.8455 9.67705 91.8455 15.695C91.8455 17.0716 92.0998 18.3854 92.5694 19.5987L92.5703 19.6011C93.2322 21.3441 94.3412 22.8733 95.7513 24.0495L95.7522 24.0502C97.4011 25.4338 99.4653 26.3404 101.738 26.5557C102.076 26.5863 102.423 26.6017 102.779 26.6017C105.668 26.6017 108.302 25.48 110.259 23.6353L110.261 23.6338C112.379 21.6591 113.704 18.8315 113.704 15.695C113.704 13.3197 112.941 11.1221 111.647 9.33133L111.646 9.33053C110.591 7.86302 109.174 6.67176 107.525 5.88014L107.523 5.87939C106.084 5.18057 104.474 4.79621 102.779 4.79621ZM91.0469 15.695C91.0469 9.23669 96.2971 3.99951 102.779 3.99951C104.596 3.99951 106.325 4.41171 107.872 5.16264C109.641 6.01216 111.162 7.29041 112.295 8.86594C113.684 10.7877 114.502 13.147 114.502 15.695C114.502 19.0591 113.081 22.0949 110.807 24.2152C108.707 26.1941 105.879 27.3984 102.779 27.3984C102.4 27.3984 102.028 27.382 101.664 27.349L101.663 27.3489C99.2237 27.1179 97.0076 26.1445 95.2386 24.6603C93.7264 23.3989 92.5356 21.7578 91.8239 19.8845C91.3195 18.5806 91.0469 17.17 91.0469 15.695Z" fill="#72AAEA"/>
<path fill-rule="evenodd" clip-rule="evenodd" d="M110.533 16.388C109.789 16.388 109.191 16.988 109.191 17.7344C109.191 18.4784 109.795 19.0808 110.541 19.0808C111.286 19.0808 111.89 18.4784 111.89 17.7344C111.89 16.9928 111.281 16.388 110.533 16.388ZM108.392 17.7344C108.392 16.5528 109.343 15.5913 110.533 15.5913C111.717 15.5913 112.689 16.5481 112.689 17.7344C112.689 18.9184 111.727 19.8775 110.541 19.8775C109.354 19.8775 108.392 18.9184 108.392 17.7344Z" fill="#72AAEA"/>
<path fill-rule="evenodd" clip-rule="evenodd" d="M92.7005 19.928C93.3267 21.4249 94.2862 22.7524 95.4822 23.818C95.8768 23.3863 96.1181 22.8124 96.1181 22.1805C96.1181 20.8318 95.0198 19.7347 93.6583 19.7347C93.3154 19.7347 92.991 19.8026 92.7005 19.928ZM91.9858 19.4045C92.4747 19.1008 93.0514 18.938 93.6583 18.938C95.4594 18.938 96.9167 20.3903 96.9167 22.1805C96.9167 23.1805 96.4605 24.0715 95.7508 24.6615C95.6025 24.7848 95.3871 24.7846 95.239 24.6611C93.7262 23.3994 92.5351 21.7578 91.8234 19.8838C91.7559 19.7058 91.8239 19.5051 91.9858 19.4045Z" fill="#72AAEA"/>
<path fill-rule="evenodd" clip-rule="evenodd" d="M106.316 21.7103C103.934 21.7103 102.003 23.6423 102.003 26.0204C102.003 26.2103 102.016 26.3965 102.04 26.5792C102.282 26.5944 102.528 26.602 102.778 26.602C105.558 26.602 108.102 25.5633 110.034 23.8412C109.289 22.568 107.905 21.7103 106.316 21.7103ZM101.205 26.0204C101.205 23.204 103.491 20.9136 106.316 20.9136C108.327 20.9136 110.059 22.0726 110.891 23.7484C110.968 23.9053 110.935 24.0944 110.807 24.2146C108.707 26.194 105.879 27.3987 102.778 27.3987C102.399 27.3987 102.028 27.3822 101.664 27.3492C101.489 27.3334 101.345 27.2058 101.309 27.0346C101.239 26.7041 101.205 26.3658 101.205 26.0204Z" fill="#72AAEA"/>
<path fill-rule="evenodd" clip-rule="evenodd" d="M100.032 6.41339C98.8143 6.41339 97.8274 7.39786 97.8274 8.61227C97.8274 9.82668 98.8143 10.8112 100.032 10.8112C101.249 10.8112 102.236 9.82668 102.236 8.61227C102.236 7.39786 101.249 6.41339 100.032 6.41339ZM97.0288 8.61227C97.0288 6.95786 98.3732 5.6167 100.032 5.6167C101.69 5.6167 103.034 6.95786 103.034 8.61227C103.034 10.2667 101.69 11.6078 100.032 11.6078C98.3732 11.6078 97.0288 10.2667 97.0288 8.61227Z" fill="#72AAEA"/>
<path fill-rule="evenodd" clip-rule="evenodd" d="M101.241 15.1854C100.798 15.1854 100.434 15.5488 100.434 15.99C100.434 16.4313 100.798 16.7947 101.241 16.7947C101.683 16.7947 102.047 16.4313 102.047 15.99C102.047 15.5488 101.683 15.1854 101.241 15.1854ZM99.6354 15.99C99.6354 15.1088 100.357 14.3887 101.241 14.3887C102.124 14.3887 102.846 15.1088 102.846 15.99C102.846 16.8713 102.124 17.5914 101.241 17.5914C100.357 17.5914 99.6354 16.8713 99.6354 15.99Z" fill="#72AAEA"/>
<path fill-rule="evenodd" clip-rule="evenodd" d="M107.504 5.17181C107.617 5.10981 107.753 5.10614 107.87 5.16197C109.639 6.01154 111.161 7.29002 112.294 8.86589C112.367 8.96827 112.388 9.09937 112.349 9.21938C112.311 9.3394 112.218 9.43418 112.098 9.47497C111.746 9.59514 111.366 9.64779 110.987 9.64779C108.928 9.64779 107.273 7.98634 107.273 5.93519C107.273 5.77658 107.282 5.62559 107.3 5.47436C107.315 5.34652 107.391 5.23382 107.504 5.17181ZM108.081 6.1676C108.199 7.67206 109.45 8.85109 110.987 8.85109C111.083 8.85109 111.177 8.84691 111.269 8.83851C110.393 7.75667 109.31 6.8475 108.081 6.1676Z" fill="#72AAEA"/>
<path fill-rule="evenodd" clip-rule="evenodd" d="M539.598 387.826C539.811 387.885 539.935 388.104 539.876 388.316L537.132 398.182L543.101 404.696C543.249 404.858 543.238 405.11 543.075 405.258C542.912 405.407 542.66 405.396 542.511 405.233L536.394 398.557C536.301 398.456 536.267 398.314 536.304 398.182L539.107 388.103C539.166 387.891 539.386 387.767 539.598 387.826Z" fill="#72AAEA"/>
<path fill-rule="evenodd" clip-rule="evenodd" d="M542.683 392.049C542.824 391.88 543.076 391.858 543.245 391.999L550.241 397.839C550.41 397.98 550.433 398.231 550.291 398.4C550.149 398.569 549.898 398.591 549.728 398.45L542.733 392.61C542.563 392.469 542.541 392.218 542.683 392.049Z" fill="#72AAEA"/>
<path fill-rule="evenodd" clip-rule="evenodd" d="M547.954 390.502C548.158 390.585 548.256 390.818 548.173 391.021L545.146 398.439C545.063 398.642 544.83 398.74 544.626 398.657C544.422 398.574 544.324 398.342 544.407 398.138L547.434 390.721C547.517 390.517 547.75 390.419 547.954 390.502Z" fill="#72AAEA"/>
<path fill-rule="evenodd" clip-rule="evenodd" d="M552.712 396.934C552.933 396.927 553.117 397.1 553.123 397.32L552.724 397.332C553.123 397.32 553.123 397.32 553.123 397.32L553.123 397.321L553.123 397.323L553.124 397.329L553.124 397.349C553.124 397.367 553.125 397.392 553.125 397.423C553.124 397.486 553.123 397.574 553.119 397.681C553.11 397.893 553.089 398.183 553.036 398.486C552.984 398.784 552.897 399.118 552.749 399.404C552.601 399.688 552.365 399.977 551.992 400.088C551.78 400.151 551.558 400.031 551.495 399.82C551.432 399.609 551.552 399.387 551.764 399.324C551.846 399.3 551.943 399.224 552.039 399.038C552.135 398.854 552.203 398.61 552.249 398.349C552.294 398.092 552.313 397.839 552.321 397.649C552.325 397.554 552.326 397.476 552.326 397.423C552.326 397.396 552.326 397.375 552.325 397.362L552.325 397.347L552.325 397.344C552.325 397.344 552.325 397.344 552.325 397.344M552.712 396.934C552.492 396.94 552.319 397.124 552.325 397.344Z" fill="#72AAEA"/>
<path fill-rule="evenodd" clip-rule="evenodd" d="M553.29 389.749C553.422 389.572 553.672 389.535 553.849 389.666L558.074 392.798C558.251 392.929 558.288 393.178 558.156 393.355C558.025 393.531 557.774 393.568 557.597 393.437L553.373 390.306C553.196 390.175 553.159 389.925 553.29 389.749Z" fill="#72AAEA"/>
<path fill-rule="evenodd" clip-rule="evenodd" d="M559.51 387.029C559.723 387.088 559.847 387.308 559.788 387.52L555.62 402.498C555.561 402.71 555.341 402.834 555.128 402.775C554.916 402.716 554.791 402.496 554.85 402.284L559.019 387.307C559.078 387.095 559.298 386.97 559.51 387.029Z" fill="#72AAEA"/>
<path fill-rule="evenodd" clip-rule="evenodd" d="M559.342 381.912C559.507 381.767 559.76 381.782 559.906 381.947L566.678 389.595C566.773 389.703 566.803 389.853 566.756 389.989L563.865 398.354C563.793 398.562 563.566 398.673 563.358 398.601C563.149 398.529 563.038 398.303 563.11 398.095L565.925 389.949L559.307 382.475C559.161 382.31 559.177 382.058 559.342 381.912Z" fill="#72AAEA"/>
<path fill-rule="evenodd" clip-rule="evenodd" d="M526.182 38.7284C526.322 38.6998 526.465 38.7472 526.56 38.8528L538.444 52.0859C538.519 52.1696 538.555 52.2811 538.544 52.3929C538.532 52.5048 538.473 52.6064 538.383 52.6729L516.7 68.5351C516.56 68.6378 516.369 68.638 516.228 68.5355C516.088 68.4331 516.03 68.2516 516.085 68.087L525.884 38.9917C525.93 38.8573 526.043 38.757 526.182 38.7284ZM526.423 39.8939L517.244 67.1495L537.555 52.2903L526.423 39.8939Z" fill="#72AAEA"/>
<path fill-rule="evenodd" clip-rule="evenodd" d="M535.704 49.0473C535.848 49.2136 535.83 49.4652 535.663 49.6092L533.291 51.6576L535.535 54.2163C535.68 54.3819 535.663 54.6336 535.497 54.7784C535.331 54.9232 535.079 54.9064 534.934 54.7408L532.426 51.8807C532.356 51.8009 532.321 51.6966 532.328 51.5908C532.335 51.4851 532.385 51.3866 532.465 51.3173L535.14 49.0068C535.307 48.8629 535.559 48.881 535.704 49.0473Z" fill="#72AAEA"/>
<path fill-rule="evenodd" clip-rule="evenodd" d="M699.206 293.342C699.338 293.276 699.496 293.287 699.617 293.372L714.655 303.912C714.772 303.994 714.836 304.133 714.823 304.275C714.809 304.417 714.721 304.542 714.59 304.601L699.217 311.564C699.092 311.62 698.947 311.609 698.832 311.534C698.718 311.459 698.65 311.33 698.652 311.193L698.988 293.69C698.991 293.543 699.075 293.409 699.206 293.342ZM699.772 294.454L699.463 310.577L713.624 304.163L699.772 294.454Z" fill="#72AAEA"/>
<path fill-rule="evenodd" clip-rule="evenodd" d="M699.203 293.345C699.398 293.243 699.64 293.318 699.742 293.513L707.065 307.447C707.168 307.642 707.093 307.883 706.897 307.985C706.702 308.087 706.461 308.012 706.358 307.817L699.035 293.883C698.932 293.688 699.008 293.447 699.203 293.345Z" fill="#72AAEA"/>
<path fill-rule="evenodd" clip-rule="evenodd" d="M707.141 304.174C707.337 304.079 707.574 304.159 707.672 304.354L708.87 306.736C708.969 306.933 708.889 307.172 708.692 307.271C708.495 307.37 708.255 307.29 708.156 307.093L707.135 305.062L705.708 305.752C705.51 305.848 705.271 305.765 705.175 305.567C705.079 305.369 705.162 305.131 705.36 305.035L707.141 304.174Z" fill="#72AAEA"/>
<path fill-rule="evenodd" clip-rule="evenodd" d="M765.5 10.9993C765.777 11.3022 765.755 11.7711 765.451 12.0468C757.071 19.654 753.594 31.8012 757.594 43.1373C761.841 55.1531 773.205 62.6303 785.295 62.5146C785.706 62.5107 786.042 62.8395 786.046 63.249C786.05 63.6585 785.72 63.9937 785.31 63.9976C772.603 64.1192 760.657 56.2619 756.192 43.6301L756.192 43.6297C751.986 31.7119 755.645 18.9441 764.45 10.9499C764.754 10.6743 765.224 10.6964 765.5 10.9993Z" fill="#72AAEA"/>
<path fill-rule="evenodd" clip-rule="evenodd" d="M813.475 42.401C813.864 42.5336 814.071 42.9552 813.938 43.3427C811.013 51.868 804.339 59.0278 795.167 62.2653C794.78 62.4019 794.355 62.1997 794.219 61.8136C794.082 61.4275 794.284 61.0038 794.671 60.8672C803.398 57.787 809.747 50.9767 812.531 42.8624C812.664 42.475 813.087 42.2684 813.475 42.401Z" fill="#72AAEA"/>
<path fill-rule="evenodd" clip-rule="evenodd" d="M812.449 23.8762C807.114 8.76454 790.517 0.825884 775.369 6.14732C774.982 6.28335 774.557 6.08049 774.421 5.69421C774.285 5.30793 774.488 4.88452 774.875 4.74849C790.798 -0.845166 808.244 7.49985 813.851 23.3836C813.987 23.7698 813.784 24.1932 813.397 24.3293C813.009 24.4653 812.585 24.2624 812.449 23.8762Z" fill="#72AAEA"/>
<path fill-rule="evenodd" clip-rule="evenodd" d="M799.121 11.3363C799.35 10.9967 799.812 10.9071 800.153 11.1361C804.799 14.2618 808.53 18.8528 810.533 24.541C815.5 38.6013 808.086 54.0022 794.008 58.9579L794.007 58.9582C783.444 62.6641 772.117 59.445 765.01 51.6694C764.734 51.3668 764.756 50.8978 765.059 50.6219C765.362 50.3459 765.832 50.3676 766.109 50.6702C772.828 58.0213 783.533 61.0606 793.514 57.5593C806.819 52.8753 813.825 38.3197 809.13 25.0332L809.13 25.0324C807.238 19.6572 803.714 15.3203 799.321 12.3657C798.981 12.1367 798.891 11.6758 799.121 11.3363Z" fill="#72AAEA"/>
<path fill-rule="evenodd" clip-rule="evenodd" d="M776.525 9.4398C781.524 7.68134 786.694 7.56646 791.459 8.81986ZM776.03 8.04123C781.318 6.18115 786.792 6.05876 791.838 7.38582C792.235 7.49022 792.472 7.89587 792.368 8.29187C792.263 8.68787 791.856 8.92425 791.459 8.81986M776.03 8.04123L776.03 8.04129ZM776.524 9.43986C763.219 14.1238 756.213 28.6795 760.908 41.966C761.044 42.3522 760.841 42.7757 760.454 42.9119C760.067 43.048 759.642 42.8453 759.506 42.459C754.538 28.3985 761.952 12.9971 776.03 8.04129" fill="#72AAEA"/>
<path fill-rule="evenodd" clip-rule="evenodd" d="M774.581 16.6671C774.93 16.4517 775.388 16.5594 775.604 16.9077L785.653 33.1172C785.816 33.3797 785.799 33.7152 785.61 33.9597L776.453 45.8239C776.202 46.1484 775.736 46.2089 775.41 45.959C775.085 45.7092 775.024 45.2436 775.275 44.9191L784.119 33.4612L774.34 17.6878C774.124 17.3395 774.232 16.8825 774.581 16.6671Z" fill="#72AAEA"/>
</svg>
